<?xml version="1.0" encoding="UTF-8"?>
<svg version="1.1" xmlns="http://www.w3.org/2000/svg" width="48" height="48">
<path d="M0 0 C3.83740234 0.81396484 3.83740234 0.81396484 5.30078125 2.48828125 C8.05581084 7.45584426 8.05581084 7.45584426 7.75 10.4375 C7.5025 10.953125 7.255 11.46875 7 12 C3.60085025 10.86695008 2.94745549 9.87481525 1 7 C0.34 9.31 -0.32 11.62 -1 14 C1.64 14 4.28 14 7 14 C7.05785647 17.95827235 7.09354717 21.9164367 7.125 25.875 C7.14175781 27.00292969 7.15851562 28.13085938 7.17578125 29.29296875 C7.18222656 30.36933594 7.18867187 31.44570313 7.1953125 32.5546875 C7.20578613 33.54968262 7.21625977 34.54467773 7.22705078 35.56982422 C7 38 7 38 5 40 C1.5 40.25 1.5 40.25 -2 40 C-4 38 -4 38 -4.1953125 36.0546875 C-4.09765625 33.02734375 -4.09765625 33.02734375 -4 30 C-2.68 30 -1.36 30 0 30 C0 31.98 0 33.96 0 36 C0.99 36 1.98 36 3 36 C3 31.71 3 27.42 3 23 C2.01 23 1.02 23 0 23 C0 24.65 0 26.3 0 28 C-1.32 28.33 -2.64 28.66 -4 29 C-4.31653449 25.66938883 -4.56970704 22.33673264 -4.8125 19 C-4.90208984 18.06542969 -4.99167969 17.13085938 -5.08398438 16.16796875 C-5.53857662 9.32515912 -4.31632651 5.34776286 0 0 Z M0 17 C0 17.99 0 18.98 0 20 C0.99 20 1.98 20 3 20 C3 19.01 3 18.02 3 17 C2.01 17 1.02 17 0 17 Z " fill="#000000" transform="translate(36,4)"/>
<path d="M0 0 C0.66 0.33 1.32 0.66 2 1 C1.67 2.32 1.34 3.64 1 5 C-0.134375 4.773125 -1.26875 4.54625 -2.4375 4.3125 C-7.48920916 3.65631714 -11.35803222 5.15053749 -16 7 C-16.99 7.33 -17.98 7.66 -19 8 C-21.61818051 12.40956717 -21.19427197 17.04606469 -21 22 C-20.09636719 21.94199219 -19.19273438 21.88398438 -18.26171875 21.82421875 C-17.08222656 21.77910156 -15.90273437 21.73398437 -14.6875 21.6875 C-13.51574219 21.62949219 -12.34398437 21.57148438 -11.13671875 21.51171875 C-8 22 -8 22 -6.140625 24.3203125 C-5 27 -5 27 -4.0625 30.1875 C-3.27161558 33.12240775 -3.27161558 33.12240775 -0.875 34.375 C-0.25625 34.58125 0.3625 34.7875 1 35 C1 35.99 1 36.98 1 38 C-2.3125 37.8125 -2.3125 37.8125 -6 37 C-8.88057657 33.63932733 -9.49613976 30.33319809 -10 26 C-10.81984375 26.04640625 -11.6396875 26.0928125 -12.484375 26.140625 C-14.10085938 26.19476562 -14.10085938 26.19476562 -15.75 26.25 C-17.35101562 26.31960937 -17.35101562 26.31960937 -18.984375 26.390625 C-22 26 -22 26 -24.359375 24.28515625 C-27.16306801 20.38001241 -26.68312174 16.61107175 -26 12 C-24.43396364 6.91038184 -21.12612201 3.50727692 -16.5625 0.87109375 C-11.24628932 -0.93609372 -5.52958059 -0.50796672 0 0 Z " fill="#000000" transform="translate(30,5)"/>
<path d="M0 0 C1.65 0 3.3 0 5 0 C5 1.65 5 3.3 5 5 C3.35 5 1.7 5 0 5 C0 3.35 0 1.7 0 0 Z " fill="#000000" transform="translate(10,19)"/>
<path d="M0 0 C1.65 0 3.3 0 5 0 C5 1.65 5 3.3 5 5 C3.35 5 1.7 5 0 5 C0 3.35 0 1.7 0 0 Z " fill="#000000" transform="translate(14,13)"/>
<path d="M0 0 C1.65 0 3.3 0 5 0 C5 1.65 5 3.3 5 5 C3.35 5 1.7 5 0 5 C0 3.35 0 1.7 0 0 Z " fill="#000000" transform="translate(21,11)"/>
</svg>
