<?xml version="1.0" encoding="UTF-8"?>
<svg version="1.1" xmlns="http://www.w3.org/2000/svg" width="96" height="96">
<path d="M0 0 C1.35776377 0.0300839 2.71568258 0.05386988 4.07366943 0.07116699 C5.98174605 0.0985223 7.88933041 0.15534848 9.79672241 0.21331787 C10.88469116 0.24062988 11.97265991 0.26794189 13.09359741 0.29608154 C16.70619428 0.98329925 18.41759919 2.33423365 21.04672241 4.85784912 C22.37282113 7.51004655 22.19578172 9.54325682 22.22372437 12.5133667 C22.24297722 14.29080009 22.24297722 14.29080009 22.26261902 16.10414124 C22.27000595 17.39056015 22.27739288 18.67697906 22.28500366 20.00238037 C22.29307541 21.3194548 22.30114716 22.63652924 22.3094635 23.99351501 C22.32449102 26.78528719 22.33432854 29.57703391 22.34188843 32.36883545 C22.35294618 35.94008217 22.38733797 39.51070462 22.42706013 43.08173084 C22.45953619 46.49275567 22.4640061 49.90371287 22.47250366 53.31488037 C22.49001175 54.59522659 22.50751984 55.87557281 22.52555847 57.19471741 C22.5226329 58.38912949 22.51970734 59.58354156 22.51669312 60.81414795 C22.52255936 61.86290604 22.5284256 62.91166412 22.5344696 63.99220276 C21.9226924 67.58655893 20.54506549 69.25323382 18.04672241 71.85784912 C15.40213862 73.18014102 13.3691094 72.95462106 10.42172241 72.92034912 C9.41883179 72.91132568 8.41594116 72.90230225 7.38265991 72.89300537 C6.61180054 72.88140381 5.84094116 72.86980225 5.04672241 72.85784912 C4.71672241 71.20784912 4.38672241 69.55784912 4.04672241 67.85784912 C5.13984741 67.54847412 6.23297241 67.23909912 7.35922241 66.92034912 C9.60080235 66.27447015 11.83365751 65.59553742 14.04672241 64.85784912 C15.02498723 61.92305468 15.17332984 60.0316776 15.17611694 56.97503662 C15.18084518 55.48834473 15.18084518 55.48834473 15.18566895 53.97161865 C15.18364471 52.90282471 15.18162048 51.83403076 15.17953491 50.73284912 C15.18097 49.08518555 15.18097 49.08518555 15.18243408 47.40423584 C15.18311486 45.08083031 15.18126767 42.75742288 15.17709351 40.434021 C15.17174386 36.87212869 15.17704197 33.31036249 15.18344116 29.74847412 C15.18278036 27.49326551 15.18149916 25.23805697 15.17953491 22.98284912 C15.18257126 21.3796582 15.18257126 21.3796582 15.18566895 19.74407959 C15.18251678 18.75295166 15.17936462 17.76182373 15.17611694 16.74066162 C15.17532135 15.86812744 15.17452576 14.99559326 15.17370605 14.09661865 C15.13505934 11.68619811 15.13505934 11.68619811 14.04672241 8.85784912 C11.12721811 7.88468102 8.9922729 7.66489452 5.94125366 7.54144287 C5.05542603 7.50333496 4.16959839 7.46522705 3.25692749 7.42596436 C1.57506348 7.36130981 1.57506348 7.36130981 -0.14077759 7.29534912 C-3.70890259 7.15097412 -7.27702759 7.00659912 -10.95327759 6.85784912 C-10.95327759 15.76784912 -10.95327759 24.67784912 -10.95327759 33.85784912 C-3.36327759 33.85784912 4.22672241 33.85784912 12.04672241 33.85784912 C13.04672241 37.85784912 13.04672241 37.85784912 12.04672241 39.85784912 C4.45672241 39.85784912 -3.13327759 39.85784912 -10.95327759 39.85784912 C-10.95327759 47.44784912 -10.95327759 55.03784912 -10.95327759 62.85784912 C-13.42827759 63.35284912 -13.42827759 63.35284912 -15.95327759 63.85784912 C-16.95327759 62.85784912 -16.95327759 62.85784912 -17.06680298 60.63299561 C-17.06156616 59.6746582 -17.05632935 58.7163208 -17.05093384 57.72894287 C-17.04843628 56.79751465 -17.04593872 55.86608643 -17.04336548 54.90643311 C-17.03426147 53.71477539 -17.02515747 52.52311768 -17.01577759 51.29534912 C-16.99515259 47.52097412 -16.97452759 43.74659912 -16.95327759 39.85784912 C-25.86327759 39.85784912 -34.77327759 39.85784912 -43.95327759 39.85784912 C-43.80890259 43.42597412 -43.66452759 46.99409912 -43.51577759 50.67034912 C-43.47267456 51.7915918 -43.42957153 52.91283447 -43.38516235 54.0680542 C-43.34705444 54.95388184 -43.30894653 55.83970947 -43.26968384 56.75238037 C-43.23302612 57.65834961 -43.19636841 58.56431885 -43.15859985 59.4977417 C-43.03245709 62.00833694 -43.03245709 62.00833694 -41.95327759 64.85784912 C-38.28371162 66.08103778 -34.83006756 66.08901036 -31.00405884 66.17425537 C-29.84513374 66.20542702 -29.84513374 66.20542702 -28.66279602 66.23722839 C-26.19721279 66.3025595 -23.73152398 66.36153227 -21.26577759 66.42034912 C-19.59324067 66.46354999 -17.92071439 66.50716478 -16.24819946 66.5512085 C-12.15000009 66.65822402 -8.05169463 66.75953769 -3.95327759 66.85784912 C-2.82827759 70.60784912 -2.82827759 70.60784912 -3.95327759 72.85784912 C-9.55828723 72.95688429 -15.16278521 73.02939624 -20.76846313 73.07757568 C-22.67447789 73.09766458 -24.58043121 73.12494106 -26.48623657 73.15960693 C-29.22931085 73.20824554 -31.97156884 73.23084492 -34.71499634 73.24847412 C-35.56414108 73.26911926 -36.41328583 73.2897644 -37.28816223 73.31103516 C-41.37993872 73.31257956 -43.42535758 73.19044428 -46.96817017 70.95843506 C-51.44229779 66.22403657 -50.40101072 59.80286562 -50.62075806 53.62713623 C-50.70285336 51.43169405 -50.80638335 49.23789833 -50.91030884 47.043396 C-50.96242291 45.64956498 -51.01324702 44.25568502 -51.06265259 42.86175537 C-51.11389282 41.59146484 -51.16513306 40.32117432 -51.21792603 39.01239014 C-50.95327759 35.85784912 -50.95327759 35.85784912 -49.88858032 33.92474365 C-46.86923836 32.2602395 -44.29312156 32.63034592 -40.87905884 32.78363037 C-40.19522629 32.81007126 -39.51139374 32.83651215 -38.80683899 32.86375427 C-36.62558823 32.95143421 -34.44601871 33.06060463 -32.26577759 33.17034912 C-30.78601987 33.23361706 -29.30620148 33.29548283 -27.82632446 33.355896 C-24.20068099 33.50433793 -20.57810625 33.68180419 -16.95327759 33.85784912 C-16.95327759 24.94784912 -16.95327759 16.03784912 -16.95327759 6.85784912 C-20.52140259 7.00222412 -24.08952759 7.14659912 -27.76577759 7.29534912 C-28.88702026 7.33845215 -30.00826294 7.38155518 -31.16348267 7.42596436 C-32.49222412 7.48312622 -32.49222412 7.48312622 -33.84780884 7.54144287 C-34.75377808 7.57810059 -35.65974731 7.6147583 -36.59317017 7.65252686 C-39.10376541 7.77866962 -39.10376541 7.77866962 -41.95327759 8.85784912 C-42.83967147 11.51703078 -43.13316784 13.33849553 -43.26968384 16.08831787 C-43.31157837 16.89075928 -43.3534729 17.69320068 -43.39663696 18.5199585 C-43.43595337 19.3533374 -43.47526978 20.18671631 -43.51577759 21.04534912 C-43.55896118 21.89032959 -43.60214478 22.73531006 -43.64663696 23.605896 C-43.75259277 25.68969346 -43.85342779 27.77375015 -43.95327759 29.85784912 C-47.70327759 30.98284912 -47.70327759 30.98284912 -49.95327759 29.85784912 C-50.06976379 26.12894657 -50.14062335 22.40051399 -50.20327759 18.67034912 C-50.23679321 17.61525146 -50.27030884 16.56015381 -50.30484009 15.4730835 C-50.40399641 7.61494499 -50.40399641 7.61494499 -48.06265259 3.68206787 C-38.7698876 -4.35445296 -12.37119517 -0.28564167 0 0 Z " fill="#000000" transform="translate(61.953277587890625,11.14215087890625)"/>
<path d="M0 0 C0.9590625 0.37125 0.9590625 0.37125 1.9375 0.75 C2.9375 3.75 2.9375 3.75 1.875 6.625 C0.78898204 10.24505988 1.20802241 11.48320899 2.9375 14.75 C1.9475 15.74 0.9575 16.73 -0.0625 17.75 C-1.114375 17.37875 -2.16625 17.0075 -3.25 16.625 C-7.24882214 15.70723754 -8.55378216 15.83615391 -12.0625 17.75 C-13.0525 16.76 -14.0425 15.77 -15.0625 14.75 C-14.69125 13.698125 -14.32 12.64625 -13.9375 11.5625 C-12.99963329 7.47608078 -13.30120472 6.37619617 -15.0625 2.75 C-14.7325 2.09 -14.4025 1.43 -14.0625 0.75 C-10.72916667 0.75 -7.39583333 0.75 -4.0625 0.75 C-2.0625 -0.25 -2.0625 -0.25 0 0 Z " fill="#000000" transform="translate(37.0625,56.25)"/>
<path d="M0 0 C0 1.98 0 3.96 0 6 C1.98 6 3.96 6 6 6 C7.125 9.75 7.125 9.75 6 12 C4.02 12 2.04 12 0 12 C0 13.98 0 15.96 0 18 C-3.75 19.125 -3.75 19.125 -6 18 C-6 16.02 -6 14.04 -6 12 C-7.98 12 -9.96 12 -12 12 C-13.125 8.25 -13.125 8.25 -12 6 C-10.02 6 -8.04 6 -6 6 C-6 4.02 -6 2.04 -6 0 C-3.50907189 -1.24546405 -2.58919267 -0.7767578 0 0 Z " fill="#000000" transform="translate(34,22)"/>
<path d="M0 0 C5.94 0 11.88 0 18 0 C19 4 19 4 18 6 C12.06 6 6.12 6 0 6 C-1 2 -1 2 0 0 Z " fill="#000000" transform="translate(56,66)"/>
<path d="M0 0 C5.94 0 11.88 0 18 0 C19 4 19 4 18 6 C12.06 6 6.12 6 0 6 C-1 2 -1 2 0 0 Z " fill="#000000" transform="translate(56,56)"/>
<path d="M0 0 C5.94 0 11.88 0 18 0 C19 4 19 4 18 6 C12.06 6 6.12 6 0 6 C-1 2 -1 2 0 0 Z " fill="#000000" transform="translate(56,28)"/>
</svg>
