<?xml version="1.0" encoding="UTF-8"?>
<svg version="1.1" xmlns="http://www.w3.org/2000/svg" width="48" height="48">
<path d="M0 0 C1.23556641 0.01740234 1.23556641 0.01740234 2.49609375 0.03515625 C3.32238281 0.04417969 4.14867187 0.05320312 5 0.0625 C5.63808594 0.07410156 6.27617187 0.08570313 6.93359375 0.09765625 C6.93359375 1.08765625 6.93359375 2.07765625 6.93359375 3.09765625 C4.95359375 3.42765625 2.97359375 3.75765625 0.93359375 4.09765625 C0.60359375 11.02765625 0.27359375 17.95765625 -0.06640625 25.09765625 C3.23359375 25.09765625 6.53359375 25.09765625 9.93359375 25.09765625 C9.93359375 23.44765625 9.93359375 21.79765625 9.93359375 20.09765625 C8.61359375 20.09765625 7.29359375 20.09765625 5.93359375 20.09765625 C5.93359375 15.80765625 5.93359375 11.51765625 5.93359375 7.09765625 C6.92359375 7.09765625 7.91359375 7.09765625 8.93359375 7.09765625 C8.93359375 10.39765625 8.93359375 13.69765625 8.93359375 17.09765625 C10.25359375 17.09765625 11.57359375 17.09765625 12.93359375 17.09765625 C12.93359375 20.72765625 12.93359375 24.35765625 12.93359375 28.09765625 C8.64359375 28.09765625 4.35359375 28.09765625 -0.06640625 28.09765625 C0.26359375 29.41765625 0.59359375 30.73765625 0.93359375 32.09765625 C6.21359375 32.42765625 11.49359375 32.75765625 16.93359375 33.09765625 C16.93359375 30.45765625 16.93359375 27.81765625 16.93359375 25.09765625 C19.90359375 25.09765625 22.87359375 25.09765625 25.93359375 25.09765625 C25.93359375 26.08765625 25.93359375 27.07765625 25.93359375 28.09765625 C23.95359375 28.09765625 21.97359375 28.09765625 19.93359375 28.09765625 C19.93359375 30.73765625 19.93359375 33.37765625 19.93359375 36.09765625 C16.28777688 36.12653137 12.64198912 36.1444121 8.99609375 36.16015625 C7.4347168 36.17272461 7.4347168 36.17272461 5.84179688 36.18554688 C4.85244141 36.18876953 3.86308594 36.19199219 2.84375 36.1953125 C1.46908569 36.20316772 1.46908569 36.20316772 0.06665039 36.21118164 C-2.06640625 36.09765625 -2.06640625 36.09765625 -3.06640625 35.09765625 C-3.16727837 32.58841472 -3.20612657 30.10729241 -3.19921875 27.59765625 C-3.20017548 26.84677734 -3.2011322 26.09589844 -3.20211792 25.32226562 C-3.20279963 23.73176998 -3.20094597 22.14127158 -3.19677734 20.55078125 C-3.19142892 18.1080097 -3.19672259 15.66542204 -3.203125 13.22265625 C-3.20246422 11.68098918 -3.20118305 10.13932222 -3.19921875 8.59765625 C-3.20124298 7.86224609 -3.20326721 7.12683594 -3.20535278 6.36914062 C-3.17641375 0.15011407 -3.17641375 0.15011407 0 0 Z " fill="#000000" transform="translate(9.06640625,5.90234375)"/>
<path d="M0 0 C3.81248426 -0.02887236 7.6249407 -0.04675492 11.4375 -0.0625 C12.52611328 -0.07087891 13.61472656 -0.07925781 14.73632812 -0.08789062 C15.77080078 -0.09111328 16.80527344 -0.09433594 17.87109375 -0.09765625 C18.82943115 -0.10289307 19.78776855 -0.10812988 20.77514648 -0.11352539 C23 0 23 0 24 1 C24.10087212 3.50924153 24.13972032 5.99036384 24.1328125 8.5 C24.13424759 9.62631836 24.13424759 9.62631836 24.13571167 10.77539062 C24.13639338 12.36588627 24.13453972 13.95638467 24.13037109 15.546875 C24.12502267 17.98964655 24.13031634 20.43223421 24.13671875 22.875 C24.13605797 24.41666707 24.1347768 25.95833403 24.1328125 27.5 C24.13483673 28.23541016 24.13686096 28.97082031 24.13894653 29.72851562 C24.11495161 34.88504839 24.11495161 34.88504839 23 36 C21.48071962 36.07179964 19.95832518 36.08392007 18.4375 36.0625 C17.61121094 36.05347656 16.78492187 36.04445312 15.93359375 36.03515625 C15.29550781 36.02355469 14.65742187 36.01195312 14 36 C14 35.01 14 34.02 14 33 C16.97 32.505 16.97 32.505 20 32 C20.33 27.71 20.66 23.42 21 19 C17.04 19 13.08 19 9 19 C9 18.01 9 17.02 9 16 C12.96 16 16.92 16 21 16 C20.67 12.04 20.34 8.08 20 4 C18.68 3.67 17.36 3.34 16 3 C16 5.97 16 8.94 16 12 C12.37 12 8.74 12 5 12 C5 11.01 5 10.02 5 9 C7.64 9 10.28 9 13 9 C13 7.02 13 5.04 13 3 C8.71 3 4.42 3 0 3 C0 2.01 0 1.02 0 0 Z " fill="#000000" transform="translate(18,6)"/>
</svg>
