<?xml version="1.0" encoding="UTF-8"?>
<svg version="1.1" xmlns="http://www.w3.org/2000/svg" width="64" height="64">
<path d="M0 0 C2.17969397 1.77198143 3.92687915 3.42016455 5.19140625 5.94921875 C5.62896849 12.40326185 5.04946518 17.37664509 0.83203125 22.6484375 C-1.39504674 25.01901278 -3.01675535 26.67698546 -6.14135742 27.7512207 C-9.29374162 29.16712452 -10.8721638 30.81796402 -13.1796875 33.37890625 C-30.71670352 52.2435912 -30.71670352 52.2435912 -42.80859375 52.94921875 C-44.80840177 52.97692972 -46.80891446 52.9850339 -48.80859375 52.94921875 C-49.56148745 44.85561148 -47.51864547 36.47082583 -42.54296875 30.00512695 C-39.84276983 27.2081012 -37.06277023 24.56137483 -34.18359375 21.94921875 C-32.2636708 20.16879916 -30.35970159 18.37325201 -28.45703125 16.57421875 C-27.61317871 15.80335937 -26.76932617 15.0325 -25.89990234 14.23828125 C-23.72893104 11.86202314 -22.8370724 9.96636473 -21.80859375 6.94921875 C-17.03275466 0.57663828 -7.68400398 -4.46435652 0 0 Z M-8.80859375 1.94921875 C-9.13687658 5.07184393 -9.13687658 5.07184393 -6.83984375 7.2109375 C-6.00453125 8.01144531 -5.16921875 8.81195313 -4.30859375 9.63671875 C-3.47328125 10.44496094 -2.63796875 11.25320312 -1.77734375 12.0859375 C-1.12765625 12.70082031 -0.47796875 13.31570312 0.19140625 13.94921875 C0.85140625 13.61921875 1.51140625 13.28921875 2.19140625 12.94921875 C2.65848414 8.93234888 2.51291459 7.38420063 0.06640625 4.07421875 C-3.24357563 1.62771041 -4.79172388 1.48214086 -8.80859375 1.94921875 Z M-16.93359375 6.94921875 C-17.55234375 7.60921875 -18.17109375 8.26921875 -18.80859375 8.94921875 C-17.22191797 12.85207642 -14.67508894 15.28442857 -11.68359375 18.19921875 C-10.77351563 19.09125 -9.8634375 19.98328125 -8.92578125 20.90234375 C-8.22710937 21.5778125 -7.5284375 22.25328125 -6.80859375 22.94921875 C-4.18671881 21.90046877 -3.01488014 21.29990562 -1.55859375 18.82421875 C-1.31109375 18.20546875 -1.06359375 17.58671875 -0.80859375 16.94921875 C-2.76098228 14.94309476 -4.71997197 12.94429442 -6.68359375 10.94921875 C-7.23917969 10.376875 -7.79476562 9.80453125 -8.3671875 9.21484375 C-9.80993779 7.75471093 -11.30603115 6.34772577 -12.80859375 4.94921875 C-15.05221948 4.72076385 -15.05221948 4.72076385 -16.93359375 6.94921875 Z M-20.80859375 13.94921875 C-27.40859375 20.54921875 -34.00859375 27.14921875 -40.80859375 33.94921875 C-38.92937544 37.70765538 -37.7838876 39.0989723 -34.68359375 41.69921875 C-33.95914063 42.3128125 -33.2346875 42.92640625 -32.48828125 43.55859375 C-31.93398438 44.0175 -31.3796875 44.47640625 -30.80859375 44.94921875 C-25.74235607 40.71105338 -21.00821306 36.27512912 -16.37109375 31.57421875 C-15.73494141 30.93355469 -15.09878906 30.29289062 -14.44335938 29.6328125 C-12.89609043 28.07390996 -11.35122883 26.51270459 -9.80859375 24.94921875 C-10.69826719 23.86082101 -11.59570949 22.77877267 -12.49609375 21.69921875 C-12.99496094 21.0959375 -13.49382813 20.49265625 -14.0078125 19.87109375 C-16.19551308 17.44467914 -16.19551308 17.44467914 -20.80859375 13.94921875 Z M-43.80859375 38.94921875 C-44.00271556 40.42753096 -44.18871506 41.90691191 -44.37109375 43.38671875 C-44.47550781 44.21042969 -44.57992187 45.03414062 -44.6875 45.8828125 C-44.72746094 46.56472656 -44.76742187 47.24664062 -44.80859375 47.94921875 C-44.47859375 48.27921875 -44.14859375 48.60921875 -43.80859375 48.94921875 C-42.28340099 48.85984072 -40.76177446 48.70384729 -39.24609375 48.51171875 C-38.41980469 48.40988281 -37.59351563 48.30804688 -36.7421875 48.203125 C-36.10410156 48.11933594 -35.46601562 48.03554688 -34.80859375 47.94921875 C-34.47207825 44.95724525 -34.47207825 44.95724525 -36.26953125 43.34375 C-36.90117188 42.82167969 -37.5328125 42.29960938 -38.18359375 41.76171875 C-38.81007813 41.23191406 -39.4365625 40.70210937 -40.08203125 40.15625 C-41.73068008 38.7582306 -41.73068008 38.7582306 -43.80859375 38.94921875 Z " fill="#000000" transform="translate(53.80859375,6.05078125)"/>
<path d="M0 0 C-0.49685857 4.25310932 -2.91961357 6.32031258 -5.875 9.25 C-6.75929688 10.14203125 -7.64359375 11.0340625 -8.5546875 11.953125 C-11 14 -11 14 -14 14 C-13.50314143 9.74689068 -11.08038643 7.67968742 -8.125 4.75 C-7.24070312 3.85796875 -6.35640625 2.9659375 -5.4453125 2.046875 C-3 0 -3 0 0 0 Z " fill="#000000" transform="translate(29,28)"/>
<path d="M0 0 C0.99 0 1.98 0 3 0 C2.42655063 2.86724686 2.1385485 3.8614515 0 6 C-0.99 6 -1.98 6 -3 6 C-2.42655063 3.13275314 -2.1385485 2.1385485 0 0 Z " fill="#000000" transform="translate(32,22)"/>
<path d="M0 0 C0.99 0 1.98 0 3 0 C2.67 1.32 2.34 2.64 2 4 C1.01 4 0.02 4 -1 4 C-0.67 2.68 -0.34 1.36 0 0 Z " fill="#000000" transform="translate(46,22)"/>
<path d="M0 0 C0.99 0 1.98 0 3 0 C2.67 1.32 2.34 2.64 2 4 C1.01 4 0.02 4 -1 4 C-0.67 2.68 -0.34 1.36 0 0 Z " fill="#000000" transform="translate(43,18)"/>
<path d="M0 0 C0.99 0 1.98 0 3 0 C2.67 1.32 2.34 2.64 2 4 C1.01 4 0.02 4 -1 4 C-0.67 2.68 -0.34 1.36 0 0 Z " fill="#000000" transform="translate(39,15)"/>
</svg>
